<?xml version="1.0" encoding="UTF-8" standalone="no"?>
<!DOCTYPE svg PUBLIC "-//W3C//DTD SVG 1.1//EN"
 "http://www.w3.org/Graphics/SVG/1.1/DTD/svg11.dtd">
<!-- Generated by graphviz version 2.38.0 (20140413.2041)
 -->
<!-- Title: structs Pages: 1 -->
<svg width="1524pt" height="442pt"
 viewBox="0.00 0.00 1523.50 442.00" xmlns="http://www.w3.org/2000/svg" xmlns:xlink="http://www.w3.org/1999/xlink">
<g id="graph0" class="graph" transform="scale(1 1) rotate(0) translate(4 438)">
<title>structs</title>
<polygon fill="white" stroke="none" points="-4,4 -4,-438 1519.5,-438 1519.5,4 -4,4"/>
<!-- correlation_wfinput_node -->
<g id="node1" class="node"><title>correlation_wfinput_node</title>
<polygon fill="none" stroke="black" points="0,-341.5 0,-433.5 259,-433.5 259,-341.5 0,-341.5"/>
<text text-anchor="middle" x="17.5" y="-383.8" font-family="Times,serif" font-size="14.00">IN</text>
<polyline fill="none" stroke="black" points="35,-341.5 35,-433.5 "/>
<text text-anchor="middle" x="83" y="-414.8" font-family="Times,serif" font-size="14.00">input_node</text>
<polyline fill="none" stroke="black" points="35,-403.5 131,-403.5 "/>
<text text-anchor="middle" x="83" y="-384.3" font-family="Times,serif" font-size="14.00">utility</text>
<polyline fill="none" stroke="black" points="35,-372.5 131,-372.5 "/>
<text text-anchor="middle" x="83" y="-353.3" font-family="Times,serif" font-size="14.00"> </text>
<polyline fill="none" stroke="black" points="131,-341.5 131,-433.5 "/>
<text text-anchor="middle" x="195" y="-418.3" font-family="Times,serif" font-size="14.00">OUT</text>
<polyline fill="none" stroke="black" points="131,-410.5 259,-410.5 "/>
<text text-anchor="middle" x="195" y="-395.3" font-family="Times,serif" font-size="14.00">atlas_file</text>
<polyline fill="none" stroke="black" points="131,-387.5 259,-387.5 "/>
<text text-anchor="middle" x="195" y="-372.3" font-family="Times,serif" font-size="14.00">atlas_lut</text>
<polyline fill="none" stroke="black" points="131,-364.5 259,-364.5 "/>
<text text-anchor="middle" x="195" y="-349.3" font-family="Times,serif" font-size="14.00">betaseries_files</text>
</g>
<!-- correlation_wfatlas_corr_node -->
<g id="node2" class="node"><title>correlation_wfatlas_corr_node</title>
<polygon fill="none" stroke="black" points="259.5,-212.5 259.5,-304.5 661.5,-304.5 661.5,-212.5 259.5,-212.5"/>
<text text-anchor="middle" x="320" y="-289.3" font-family="Times,serif" font-size="14.00">IN</text>
<polyline fill="none" stroke="black" points="259.5,-281.5 380.5,-281.5 "/>
<text text-anchor="middle" x="320" y="-266.3" font-family="Times,serif" font-size="14.00">atlas_file</text>
<polyline fill="none" stroke="black" points="259.5,-258.5 380.5,-258.5 "/>
<text text-anchor="middle" x="320" y="-243.3" font-family="Times,serif" font-size="14.00">atlas_lut</text>
<polyline fill="none" stroke="black" points="259.5,-235.5 380.5,-235.5 "/>
<text text-anchor="middle" x="320" y="-220.3" font-family="Times,serif" font-size="14.00">timeseries_file</text>
<polyline fill="none" stroke="black" points="380.5,-212.5 380.5,-304.5 "/>
<text text-anchor="middle" x="446" y="-285.8" font-family="Times,serif" font-size="14.00">atlas_corr_node</text>
<polyline fill="none" stroke="black" points="380.5,-274.5 511.5,-274.5 "/>
<text text-anchor="middle" x="446" y="-255.3" font-family="Times,serif" font-size="14.00">nilearn</text>
<polyline fill="none" stroke="black" points="380.5,-243.5 511.5,-243.5 "/>
<text text-anchor="middle" x="446" y="-224.3" font-family="Times,serif" font-size="14.00"> </text>
<polyline fill="none" stroke="black" points="511.5,-212.5 511.5,-304.5 "/>
<text text-anchor="middle" x="586.5" y="-277.8" font-family="Times,serif" font-size="14.00">OUT</text>
<polyline fill="none" stroke="black" points="511.5,-258.5 661.5,-258.5 "/>
<text text-anchor="middle" x="586.5" y="-231.8" font-family="Times,serif" font-size="14.00">correlation_matrix</text>
</g>
<!-- correlation_wfinput_node&#45;&gt;correlation_wfatlas_corr_node -->
<g id="edge2" class="edge"><title>correlation_wfinput_node:outatlasfile:e&#45;&gt;correlation_wfatlas_corr_node:inatlasfile:w</title>
<path fill="none" stroke="black" d="M260.5,-399.5C313.585,-399.5 217.521,-288.938 248.466,-272.526"/>
<polygon fill="black" stroke="black" points="249.391,-275.91 258.5,-270.5 248.005,-269.049 249.391,-275.91"/>
</g>
<!-- correlation_wfinput_node&#45;&gt;correlation_wfatlas_corr_node -->
<g id="edge3" class="edge"><title>correlation_wfinput_node:outatlaslut:e&#45;&gt;correlation_wfatlas_corr_node:inatlaslut:w</title>
<path fill="none" stroke="black" d="M260.5,-375.5C313.585,-375.5 217.521,-264.938 248.466,-248.526"/>
<polygon fill="black" stroke="black" points="249.391,-251.91 258.5,-246.5 248.005,-245.049 249.391,-251.91"/>
</g>
<!-- correlation_wfinput_node&#45;&gt;correlation_wfatlas_corr_node -->
<g id="edge4" class="edge"><title>correlation_wfinput_node:outbetaseriesfiles:e&#45;&gt;correlation_wfatlas_corr_node:intimeseriesfile:w</title>
<path fill="none" stroke="black" d="M260.5,-352.5C281.616,-352.5 259.852,-326.113 259.5,-305 258.967,-273.025 230.364,-233.988 248.591,-225.278"/>
<polygon fill="black" stroke="black" points="249.275,-228.711 258.5,-223.5 248.039,-221.821 249.275,-228.711"/>
</g>
<!-- correlation_wfrename_matrix_node -->
<g id="node3" class="node"><title>correlation_wfrename_matrix_node</title>
<polygon fill="none" stroke="black" points="675.5,-106.5 675.5,-175.5 1211.5,-175.5 1211.5,-106.5 675.5,-106.5"/>
<text text-anchor="middle" x="750.5" y="-160.3" font-family="Times,serif" font-size="14.00">IN</text>
<polyline fill="none" stroke="black" points="675.5,-152.5 825.5,-152.5 "/>
<text text-anchor="middle" x="750.5" y="-137.3" font-family="Times,serif" font-size="14.00">betaseries_file</text>
<polyline fill="none" stroke="black" points="675.5,-129.5 825.5,-129.5 "/>
<text text-anchor="middle" x="750.5" y="-114.3" font-family="Times,serif" font-size="14.00">correlation_matrix</text>
<polyline fill="none" stroke="black" points="825.5,-106.5 825.5,-175.5 "/>
<text text-anchor="middle" x="909" y="-160.3" font-family="Times,serif" font-size="14.00">rename_matrix_node</text>
<polyline fill="none" stroke="black" points="825.5,-152.5 992.5,-152.5 "/>
<text text-anchor="middle" x="909" y="-137.3" font-family="Times,serif" font-size="14.00">utility</text>
<polyline fill="none" stroke="black" points="825.5,-129.5 992.5,-129.5 "/>
<text text-anchor="middle" x="909" y="-114.3" font-family="Times,serif" font-size="14.00"> </text>
<polyline fill="none" stroke="black" points="992.5,-106.5 992.5,-175.5 "/>
<text text-anchor="middle" x="1102" y="-154.8" font-family="Times,serif" font-size="14.00">OUT</text>
<polyline fill="none" stroke="black" points="992.5,-141.5 1211.5,-141.5 "/>
<text text-anchor="middle" x="1102" y="-120.3" font-family="Times,serif" font-size="14.00">correlation_matrix_trialtype</text>
</g>
<!-- correlation_wfinput_node&#45;&gt;correlation_wfrename_matrix_node -->
<g id="edge5" class="edge"><title>correlation_wfinput_node:outbetaseriesfiles:e&#45;&gt;correlation_wfrename_matrix_node:inbetaseriesfile:w</title>
<path fill="none" stroke="black" d="M260.5,-352.5C306.36,-352.5 639.58,-338.869 670.5,-305 675.709,-299.295 668.413,-185.424 671.62,-150.862"/>
<polygon fill="black" stroke="black" points="675.056,-151.58 674.5,-141 668.337,-149.618 675.056,-151.58"/>
</g>
<!-- correlation_wfatlas_corr_node&#45;&gt;correlation_wfrename_matrix_node -->
<g id="edge1" class="edge"><title>correlation_wfatlas_corr_node:outcorrelationmatrix:e&#45;&gt;correlation_wfrename_matrix_node:incorrelationmatrix:w</title>
<path fill="none" stroke="black" d="M662.5,-235.5C684.953,-235.5 658.564,-149.51 666.899,-124.654"/>
<polygon fill="black" stroke="black" points="669.281,-127.22 674.5,-118 664.67,-121.953 669.281,-127.22"/>
</g>
<!-- correlation_wfoutput_node -->
<g id="node4" class="node"><title>correlation_wfoutput_node</title>
<polygon fill="none" stroke="black" points="1211.5,-0.5 1211.5,-69.5 1515.5,-69.5 1515.5,-0.5 1211.5,-0.5"/>
<text text-anchor="middle" x="1286.5" y="-48.8" font-family="Times,serif" font-size="14.00">IN</text>
<polyline fill="none" stroke="black" points="1211.5,-35.5 1361.5,-35.5 "/>
<text text-anchor="middle" x="1286.5" y="-14.3" font-family="Times,serif" font-size="14.00">correlation_matrix</text>
<polyline fill="none" stroke="black" points="1361.5,-0.5 1361.5,-69.5 "/>
<text text-anchor="middle" x="1414.5" y="-54.3" font-family="Times,serif" font-size="14.00">output_node</text>
<polyline fill="none" stroke="black" points="1361.5,-46.5 1467.5,-46.5 "/>
<text text-anchor="middle" x="1414.5" y="-31.3" font-family="Times,serif" font-size="14.00">utility</text>
<polyline fill="none" stroke="black" points="1361.5,-23.5 1467.5,-23.5 "/>
<text text-anchor="middle" x="1414.5" y="-8.3" font-family="Times,serif" font-size="14.00"> </text>
<polyline fill="none" stroke="black" points="1467.5,-0.5 1467.5,-69.5 "/>
<text text-anchor="middle" x="1491.5" y="-31.3" font-family="Times,serif" font-size="14.00">OUT</text>
</g>
<!-- correlation_wfrename_matrix_node&#45;&gt;correlation_wfoutput_node -->
<g id="edge6" class="edge"><title>correlation_wfrename_matrix_node:outcorrelationmatrixtrialtype:e&#45;&gt;correlation_wfoutput_node:incorrelationmatrix:w</title>
<path fill="none" stroke="black" d="M1212.5,-124C1255.2,-124 1180.17,-36.9434 1200.79,-20.6202"/>
<polygon fill="black" stroke="black" points="1201.76,-23.9848 1210.5,-18 1199.93,-17.2266 1201.76,-23.9848"/>
</g>
</g>
</svg>
