<?xml version="1.0" encoding="UTF-8" standalone="no"?>
<!DOCTYPE svg PUBLIC "-//W3C//DTD SVG 1.1//EN"
 "http://www.w3.org/Graphics/SVG/1.1/DTD/svg11.dtd">
<!-- Generated by graphviz version 2.38.0 (20140413.2041)
 -->
<!-- Title: structs Pages: 1 -->
<svg width="1148pt" height="732pt"
 viewBox="0.00 0.00 1147.50 732.00" xmlns="http://www.w3.org/2000/svg" xmlns:xlink="http://www.w3.org/1999/xlink">
<g id="graph0" class="graph" transform="scale(1 1) rotate(0) translate(4 728)">
<title>structs</title>
<polygon fill="white" stroke="none" points="-4,4 -4,-728 1143.5,-728 1143.5,4 -4,4"/>
<!-- subtestinput_node -->
<g id="node1" class="node"><title>subtestinput_node</title>
<polygon fill="none" stroke="black" points="0,-539.5 0,-723.5 253,-723.5 253,-539.5 0,-539.5"/>
<text text-anchor="middle" x="17.5" y="-627.8" font-family="Times,serif" font-size="14.00">IN</text>
<polyline fill="none" stroke="black" points="35,-539.5 35,-723.5 "/>
<text text-anchor="middle" x="83" y="-689.3" font-family="Times,serif" font-size="14.00">input_node</text>
<polyline fill="none" stroke="black" points="35,-662.5 131,-662.5 "/>
<text text-anchor="middle" x="83" y="-628.3" font-family="Times,serif" font-size="14.00">utility</text>
<polyline fill="none" stroke="black" points="35,-601.5 131,-601.5 "/>
<text text-anchor="middle" x="83" y="-566.8" font-family="Times,serif" font-size="14.00"> </text>
<polyline fill="none" stroke="black" points="131,-539.5 131,-723.5 "/>
<text text-anchor="middle" x="192" y="-708.3" font-family="Times,serif" font-size="14.00">OUT</text>
<polyline fill="none" stroke="black" points="131,-700.5 253,-700.5 "/>
<text text-anchor="middle" x="192" y="-685.3" font-family="Times,serif" font-size="14.00">atlas_img</text>
<polyline fill="none" stroke="black" points="131,-677.5 253,-677.5 "/>
<text text-anchor="middle" x="192" y="-662.3" font-family="Times,serif" font-size="14.00">atlas_lut</text>
<polyline fill="none" stroke="black" points="131,-654.5 253,-654.5 "/>
<text text-anchor="middle" x="192" y="-639.3" font-family="Times,serif" font-size="14.00">bold_metadata</text>
<polyline fill="none" stroke="black" points="131,-631.5 253,-631.5 "/>
<text text-anchor="middle" x="192" y="-616.3" font-family="Times,serif" font-size="14.00">brainmask</text>
<polyline fill="none" stroke="black" points="131,-608.5 253,-608.5 "/>
<text text-anchor="middle" x="192" y="-593.3" font-family="Times,serif" font-size="14.00">confound_tsv</text>
<polyline fill="none" stroke="black" points="131,-585.5 253,-585.5 "/>
<text text-anchor="middle" x="192" y="-570.3" font-family="Times,serif" font-size="14.00">events_tsv</text>
<polyline fill="none" stroke="black" points="131,-562.5 253,-562.5 "/>
<text text-anchor="middle" x="192" y="-547.3" font-family="Times,serif" font-size="14.00">preproc_img</text>
</g>
<!-- subtestbetaseries_wf -->
<g id="node2" class="node"><title>subtestbetaseries_wf</title>
<polygon fill="none" stroke="black" points="254,-364.5 254,-502.5 797,-502.5 797,-364.5 254,-364.5"/>
<text text-anchor="middle" x="357" y="-487.3" font-family="Times,serif" font-size="14.00">IN</text>
<polyline fill="none" stroke="black" points="254,-479.5 460,-479.5 "/>
<text text-anchor="middle" x="357" y="-464.3" font-family="Times,serif" font-size="14.00">input_node.bold_file</text>
<polyline fill="none" stroke="black" points="254,-456.5 460,-456.5 "/>
<text text-anchor="middle" x="357" y="-441.3" font-family="Times,serif" font-size="14.00">input_node.bold_mask_file</text>
<polyline fill="none" stroke="black" points="254,-433.5 460,-433.5 "/>
<text text-anchor="middle" x="357" y="-418.3" font-family="Times,serif" font-size="14.00">input_node.bold_metadata</text>
<polyline fill="none" stroke="black" points="254,-410.5 460,-410.5 "/>
<text text-anchor="middle" x="357" y="-395.3" font-family="Times,serif" font-size="14.00">input_node.confounds_file</text>
<polyline fill="none" stroke="black" points="254,-387.5 460,-387.5 "/>
<text text-anchor="middle" x="357" y="-372.3" font-family="Times,serif" font-size="14.00">input_node.events_file</text>
<polyline fill="none" stroke="black" points="460,-364.5 460,-502.5 "/>
<text text-anchor="middle" x="518" y="-475.8" font-family="Times,serif" font-size="14.00">betaseries_wf</text>
<polyline fill="none" stroke="black" points="460,-456.5 576,-456.5 "/>
<text text-anchor="middle" x="518" y="-429.8" font-family="Times,serif" font-size="14.00"> </text>
<polyline fill="none" stroke="black" points="460,-410.5 576,-410.5 "/>
<text text-anchor="middle" x="518" y="-383.8" font-family="Times,serif" font-size="14.00"> </text>
<polyline fill="none" stroke="black" points="576,-364.5 576,-502.5 "/>
<text text-anchor="middle" x="686.5" y="-464.3" font-family="Times,serif" font-size="14.00">OUT</text>
<polyline fill="none" stroke="black" points="576,-433.5 797,-433.5 "/>
<text text-anchor="middle" x="686.5" y="-395.3" font-family="Times,serif" font-size="14.00">output_node.betaseries_files</text>
</g>
<!-- subtestinput_node&#45;&gt;subtestbetaseries_wf -->
<g id="edge6" class="edge"><title>subtestinput_node:outboldmetadata:e&#45;&gt;subtestbetaseries_wf:ininputnodeboldmetadata:w</title>
<path fill="none" stroke="black" d="M254.5,-643.5C276.277,-643.5 238.82,-470.483 246.714,-429.932"/>
<polygon fill="black" stroke="black" points="249.728,-431.726 252.5,-421.5 243.956,-427.765 249.728,-431.726"/>
</g>
<!-- subtestinput_node&#45;&gt;subtestbetaseries_wf -->
<g id="edge7" class="edge"><title>subtestinput_node:outbrainmask:e&#45;&gt;subtestbetaseries_wf:ininputnodeboldmaskfile:w</title>
<path fill="none" stroke="black" d="M254.5,-619.5C289.091,-619.5 229.254,-480.268 243.926,-450.898"/>
<polygon fill="black" stroke="black" points="245.902,-453.79 252.5,-445.5 242.173,-447.866 245.902,-453.79"/>
</g>
<!-- subtestinput_node&#45;&gt;subtestbetaseries_wf -->
<g id="edge8" class="edge"><title>subtestinput_node:outconfoundtsv:e&#45;&gt;subtestbetaseries_wf:ininputnodeconfoundsfile:w</title>
<path fill="none" stroke="black" d="M254.5,-596.5C296.058,-596.5 253.921,-544.556 253.5,-503 253.304,-483.678 236.665,-424.166 244.457,-404.719"/>
<polygon fill="black" stroke="black" points="246.73,-407.386 252.5,-398.5 242.448,-401.848 246.73,-407.386"/>
</g>
<!-- subtestinput_node&#45;&gt;subtestbetaseries_wf -->
<g id="edge9" class="edge"><title>subtestinput_node:outeventstsv:e&#45;&gt;subtestbetaseries_wf:ininputnodeeventsfile:w</title>
<path fill="none" stroke="black" d="M254.5,-573.5C285.836,-573.5 253.845,-534.335 253.5,-503 253.231,-478.541 231.565,-401.292 243.875,-380.626"/>
<polygon fill="black" stroke="black" points="245.692,-383.618 252.5,-375.5 242.115,-377.601 245.692,-383.618"/>
</g>
<!-- subtestinput_node&#45;&gt;subtestbetaseries_wf -->
<g id="edge10" class="edge"><title>subtestinput_node:outpreprocimg:e&#45;&gt;subtestbetaseries_wf:ininputnodeboldfile:w</title>
<path fill="none" stroke="black" d="M254.5,-550.5C285.829,-550.5 234.911,-489.941 243.108,-472.909"/>
<polygon fill="black" stroke="black" points="244.935,-475.918 252.5,-468.5 241.96,-469.581 244.935,-475.918"/>
</g>
<!-- subtestcorrelation_wf -->
<g id="node3" class="node"><title>subtestcorrelation_wf</title>
<polygon fill="none" stroke="black" points="190.5,-235.5 190.5,-327.5 766.5,-327.5 766.5,-235.5 190.5,-235.5"/>
<text text-anchor="middle" x="296.5" y="-312.3" font-family="Times,serif" font-size="14.00">IN</text>
<polyline fill="none" stroke="black" points="190.5,-304.5 402.5,-304.5 "/>
<text text-anchor="middle" x="296.5" y="-289.3" font-family="Times,serif" font-size="14.00">input_node.atlas_file</text>
<polyline fill="none" stroke="black" points="190.5,-281.5 402.5,-281.5 "/>
<text text-anchor="middle" x="296.5" y="-266.3" font-family="Times,serif" font-size="14.00">input_node.atlas_lut</text>
<polyline fill="none" stroke="black" points="190.5,-258.5 402.5,-258.5 "/>
<text text-anchor="middle" x="296.5" y="-243.3" font-family="Times,serif" font-size="14.00">input_node.betaseries_files</text>
<polyline fill="none" stroke="black" points="402.5,-235.5 402.5,-327.5 "/>
<text text-anchor="middle" x="462.5" y="-308.8" font-family="Times,serif" font-size="14.00">correlation_wf</text>
<polyline fill="none" stroke="black" points="402.5,-297.5 522.5,-297.5 "/>
<text text-anchor="middle" x="462.5" y="-278.3" font-family="Times,serif" font-size="14.00"> </text>
<polyline fill="none" stroke="black" points="402.5,-266.5 522.5,-266.5 "/>
<text text-anchor="middle" x="462.5" y="-247.3" font-family="Times,serif" font-size="14.00"> </text>
<polyline fill="none" stroke="black" points="522.5,-235.5 522.5,-327.5 "/>
<text text-anchor="middle" x="644.5" y="-300.8" font-family="Times,serif" font-size="14.00">OUT</text>
<polyline fill="none" stroke="black" points="522.5,-281.5 766.5,-281.5 "/>
<text text-anchor="middle" x="644.5" y="-254.8" font-family="Times,serif" font-size="14.00">output_node.correlation_matrix</text>
</g>
<!-- subtestinput_node&#45;&gt;subtestcorrelation_wf -->
<g id="edge4" class="edge"><title>subtestinput_node:outatlasimg:e&#45;&gt;subtestcorrelation_wf:ininputnodeatlasfile:w</title>
<path fill="none" stroke="black" d="M254.5,-689.5C321.39,-689.5 281.652,-599.678 253.5,-539 243.153,-516.698 223.088,-524.683 211.5,-503 169.096,-423.654 101.421,-303.349 179.273,-294.071"/>
<polygon fill="black" stroke="black" points="179.711,-297.552 189.5,-293.5 179.32,-290.563 179.711,-297.552"/>
</g>
<!-- subtestinput_node&#45;&gt;subtestcorrelation_wf -->
<g id="edge5" class="edge"><title>subtestinput_node:outatlaslut:e&#45;&gt;subtestcorrelation_wf:ininputnodeatlaslut:w</title>
<path fill="none" stroke="black" d="M254.5,-666.5C311.168,-666.5 261.912,-595.041 253.5,-539 249.868,-514.804 194.244,-352.179 190.5,-328 187.236,-306.92 171.156,-281.059 179.836,-272.446"/>
<polygon fill="black" stroke="black" points="180.955,-275.764 189.5,-269.5 178.914,-269.068 180.955,-275.764"/>
</g>
<!-- subtestds_correlation_matrix -->
<g id="node5" class="node"><title>subtestds_correlation_matrix</title>
<polygon fill="none" stroke="black" points="797.5,-0.5 797.5,-92.5 1139.5,-92.5 1139.5,-0.5 797.5,-0.5"/>
<text text-anchor="middle" x="857.5" y="-77.3" font-family="Times,serif" font-size="14.00">IN</text>
<polyline fill="none" stroke="black" points="797.5,-69.5 917.5,-69.5 "/>
<text text-anchor="middle" x="857.5" y="-54.3" font-family="Times,serif" font-size="14.00">betaseries_file</text>
<polyline fill="none" stroke="black" points="797.5,-46.5 917.5,-46.5 "/>
<text text-anchor="middle" x="857.5" y="-31.3" font-family="Times,serif" font-size="14.00">in_file</text>
<polyline fill="none" stroke="black" points="797.5,-23.5 917.5,-23.5 "/>
<text text-anchor="middle" x="857.5" y="-8.3" font-family="Times,serif" font-size="14.00">source_file</text>
<polyline fill="none" stroke="black" points="917.5,-0.5 917.5,-92.5 "/>
<text text-anchor="middle" x="1004.5" y="-73.8" font-family="Times,serif" font-size="14.00">ds_correlation_matrix</text>
<polyline fill="none" stroke="black" points="917.5,-62.5 1091.5,-62.5 "/>
<text text-anchor="middle" x="1004.5" y="-43.3" font-family="Times,serif" font-size="14.00">bids</text>
<polyline fill="none" stroke="black" points="917.5,-31.5 1091.5,-31.5 "/>
<text text-anchor="middle" x="1004.5" y="-12.3" font-family="Times,serif" font-size="14.00"> </text>
<polyline fill="none" stroke="black" points="1091.5,-0.5 1091.5,-92.5 "/>
<text text-anchor="middle" x="1115.5" y="-42.8" font-family="Times,serif" font-size="14.00">OUT</text>
</g>
<!-- subtestinput_node&#45;&gt;subtestds_correlation_matrix -->
<g id="edge11" class="edge"><title>subtestinput_node:outpreprocimg:e&#45;&gt;subtestds_correlation_matrix:insourcefile:w</title>
<path fill="none" stroke="black" d="M254.5,-550.5C315.949,-550.5 762.431,-546.83 805.5,-503 922.003,-384.437 830.496,-293.177 804.5,-129 796.921,-81.138 751.657,-21.1897 786.512,-12.5547"/>
<polygon fill="black" stroke="black" points="786.923,-16.0308 796.5,-11.5 786.188,-9.06955 786.923,-16.0308"/>
</g>
<!-- subtestbetaseries_wf&#45;&gt;subtestcorrelation_wf -->
<g id="edge1" class="edge"><title>subtestbetaseries_wf:outoutputnodebetaseriesfiles:e&#45;&gt;subtestcorrelation_wf:ininputnodebetaseriesfiles:w</title>
<path fill="none" stroke="black" d="M798.5,-398.5C813.84,-398.5 808.182,-375.01 797.5,-364 703.408,-267.017 283.778,-425.766 190.5,-328 168.131,-304.555 155.995,-257.839 179.613,-248.246"/>
<polygon fill="black" stroke="black" points="180.261,-251.686 189.5,-246.5 179.044,-244.793 180.261,-251.686"/>
</g>
<!-- subtestbetaseries_wf&#45;&gt;subtestds_correlation_matrix -->
<g id="edge2" class="edge"><title>subtestbetaseries_wf:outoutputnodebetaseriesfiles:e&#45;&gt;subtestds_correlation_matrix:inbetaseriesfile:w</title>
<path fill="none" stroke="black" d="M798.5,-398.5C833.032,-398.5 771.2,-114.427 789.169,-65.6014"/>
<polygon fill="black" stroke="black" points="791.753,-67.9717 796.5,-58.5 786.882,-62.9439 791.753,-67.9717"/>
</g>
<!-- subtestoutput_node -->
<g id="node4" class="node"><title>subtestoutput_node</title>
<polygon fill="none" stroke="black" points="331.5,-129.5 331.5,-198.5 769.5,-198.5 769.5,-129.5 331.5,-129.5"/>
<text text-anchor="middle" x="414.5" y="-177.8" font-family="Times,serif" font-size="14.00">IN</text>
<polyline fill="none" stroke="black" points="331.5,-164.5 497.5,-164.5 "/>
<text text-anchor="middle" x="414.5" y="-143.3" font-family="Times,serif" font-size="14.00">correlation_matrices</text>
<polyline fill="none" stroke="black" points="497.5,-129.5 497.5,-198.5 "/>
<text text-anchor="middle" x="550.5" y="-183.3" font-family="Times,serif" font-size="14.00">output_node</text>
<polyline fill="none" stroke="black" points="497.5,-175.5 603.5,-175.5 "/>
<text text-anchor="middle" x="550.5" y="-160.3" font-family="Times,serif" font-size="14.00">utility</text>
<polyline fill="none" stroke="black" points="497.5,-152.5 603.5,-152.5 "/>
<text text-anchor="middle" x="550.5" y="-137.3" font-family="Times,serif" font-size="14.00"> </text>
<polyline fill="none" stroke="black" points="603.5,-129.5 603.5,-198.5 "/>
<text text-anchor="middle" x="686.5" y="-177.8" font-family="Times,serif" font-size="14.00">OUT</text>
<polyline fill="none" stroke="black" points="603.5,-164.5 769.5,-164.5 "/>
<text text-anchor="middle" x="686.5" y="-143.3" font-family="Times,serif" font-size="14.00">correlation_matrices</text>
</g>
<!-- subtestcorrelation_wf&#45;&gt;subtestoutput_node -->
<g id="edge3" class="edge"><title>subtestcorrelation_wf:outoutputnodecorrelationmatrix:e&#45;&gt;subtestoutput_node:incorrelationmatrices:w</title>
<path fill="none" stroke="black" d="M767.5,-258.5C777.954,-258.5 773.743,-242.539 766.5,-235 699.3,-165.053 397.881,-269.725 331.5,-199 318.523,-185.174 310.609,-159.04 320.943,-150.094"/>
<polygon fill="black" stroke="black" points="322.064,-153.41 330.5,-147 319.908,-146.751 322.064,-153.41"/>
</g>
<!-- subtestoutput_node&#45;&gt;subtestds_correlation_matrix -->
<g id="edge12" class="edge"><title>subtestoutput_node:outcorrelationmatrices:e&#45;&gt;subtestds_correlation_matrix:ininfile:w</title>
<path fill="none" stroke="black" d="M770.5,-147C792.551,-147 776.954,-63.9159 788.416,-40.5485"/>
<polygon fill="black" stroke="black" points="790.59,-43.2932 796.5,-34.5 786.396,-37.6883 790.59,-43.2932"/>
</g>
</g>
</svg>
