<?xml version="1.0" encoding="UTF-8" standalone="no"?>
<!DOCTYPE svg PUBLIC "-//W3C//DTD SVG 1.1//EN"
 "http://www.w3.org/Graphics/SVG/1.1/DTD/svg11.dtd">
<!-- Generated by graphviz version 2.38.0 (20140413.2041)
 -->
<!-- Title: structs Pages: 1 -->
<svg width="894pt" height="428pt"
 viewBox="0.00 0.00 893.50 428.00" xmlns="http://www.w3.org/2000/svg" xmlns:xlink="http://www.w3.org/1999/xlink">
<g id="graph0" class="graph" transform="scale(1 1) rotate(0) translate(4 424)">
<title>structs</title>
<polygon fill="white" stroke="none" points="-4,4 -4,-424 889.5,-424 889.5,4 -4,4"/>
<!-- betaseries_wfinput_node -->
<g id="node1" class="node"><title>betaseries_wfinput_node</title>
<polygon fill="none" stroke="black" points="0,-281.5 0,-419.5 253,-419.5 253,-281.5 0,-281.5"/>
<text text-anchor="middle" x="17.5" y="-346.8" font-family="Times,serif" font-size="14.00">IN</text>
<polyline fill="none" stroke="black" points="35,-281.5 35,-419.5 "/>
<text text-anchor="middle" x="83" y="-392.8" font-family="Times,serif" font-size="14.00">input_node</text>
<polyline fill="none" stroke="black" points="35,-373.5 131,-373.5 "/>
<text text-anchor="middle" x="83" y="-346.8" font-family="Times,serif" font-size="14.00">utility</text>
<polyline fill="none" stroke="black" points="35,-327.5 131,-327.5 "/>
<text text-anchor="middle" x="83" y="-300.8" font-family="Times,serif" font-size="14.00"> </text>
<polyline fill="none" stroke="black" points="131,-281.5 131,-419.5 "/>
<text text-anchor="middle" x="192" y="-404.3" font-family="Times,serif" font-size="14.00">OUT</text>
<polyline fill="none" stroke="black" points="131,-396.5 253,-396.5 "/>
<text text-anchor="middle" x="192" y="-381.3" font-family="Times,serif" font-size="14.00">bold_file</text>
<polyline fill="none" stroke="black" points="131,-373.5 253,-373.5 "/>
<text text-anchor="middle" x="192" y="-358.3" font-family="Times,serif" font-size="14.00">bold_mask_file</text>
<polyline fill="none" stroke="black" points="131,-350.5 253,-350.5 "/>
<text text-anchor="middle" x="192" y="-335.3" font-family="Times,serif" font-size="14.00">bold_metadata</text>
<polyline fill="none" stroke="black" points="131,-327.5 253,-327.5 "/>
<text text-anchor="middle" x="192" y="-312.3" font-family="Times,serif" font-size="14.00">confounds_file</text>
<polyline fill="none" stroke="black" points="131,-304.5 253,-304.5 "/>
<text text-anchor="middle" x="192" y="-289.3" font-family="Times,serif" font-size="14.00">events_file</text>
</g>
<!-- betaseries_wfbetaseries_node -->
<g id="node2" class="node"><title>betaseries_wfbetaseries_node</title>
<polygon fill="none" stroke="black" points="254,-106.5 254,-244.5 603,-244.5 603,-106.5 254,-106.5"/>
<text text-anchor="middle" x="315" y="-229.3" font-family="Times,serif" font-size="14.00">IN</text>
<polyline fill="none" stroke="black" points="254,-221.5 376,-221.5 "/>
<text text-anchor="middle" x="315" y="-206.3" font-family="Times,serif" font-size="14.00">bold_file</text>
<polyline fill="none" stroke="black" points="254,-198.5 376,-198.5 "/>
<text text-anchor="middle" x="315" y="-183.3" font-family="Times,serif" font-size="14.00">bold_metadata</text>
<polyline fill="none" stroke="black" points="254,-175.5 376,-175.5 "/>
<text text-anchor="middle" x="315" y="-160.3" font-family="Times,serif" font-size="14.00">confounds_file</text>
<polyline fill="none" stroke="black" points="254,-152.5 376,-152.5 "/>
<text text-anchor="middle" x="315" y="-137.3" font-family="Times,serif" font-size="14.00">events_file</text>
<polyline fill="none" stroke="black" points="254,-129.5 376,-129.5 "/>
<text text-anchor="middle" x="315" y="-114.3" font-family="Times,serif" font-size="14.00">mask_file</text>
<polyline fill="none" stroke="black" points="376,-106.5 376,-244.5 "/>
<text text-anchor="middle" x="442.5" y="-217.8" font-family="Times,serif" font-size="14.00">betaseries_node</text>
<polyline fill="none" stroke="black" points="376,-198.5 509,-198.5 "/>
<text text-anchor="middle" x="442.5" y="-171.8" font-family="Times,serif" font-size="14.00">nistats</text>
<polyline fill="none" stroke="black" points="376,-152.5 509,-152.5 "/>
<text text-anchor="middle" x="442.5" y="-125.8" font-family="Times,serif" font-size="14.00"> </text>
<polyline fill="none" stroke="black" points="509,-106.5 509,-244.5 "/>
<text text-anchor="middle" x="556" y="-206.3" font-family="Times,serif" font-size="14.00">OUT</text>
<polyline fill="none" stroke="black" points="509,-175.5 603,-175.5 "/>
<text text-anchor="middle" x="556" y="-137.3" font-family="Times,serif" font-size="14.00">beta_maps</text>
</g>
<!-- betaseries_wfinput_node&#45;&gt;betaseries_wfbetaseries_node -->
<g id="edge2" class="edge"><title>betaseries_wfinput_node:outboldfile:e&#45;&gt;betaseries_wfbetaseries_node:inboldfile:w</title>
<path fill="none" stroke="black" d="M254.5,-385.5C300.947,-385.5 254.052,-327.443 253.5,-281 253.183,-254.317 229.957,-221.955 242.419,-212.935"/>
<polygon fill="black" stroke="black" points="243.601,-216.25 252.5,-210.5 241.958,-209.446 243.601,-216.25"/>
</g>
<!-- betaseries_wfinput_node&#45;&gt;betaseries_wfbetaseries_node -->
<g id="edge3" class="edge"><title>betaseries_wfinput_node:outboldmaskfile:e&#45;&gt;betaseries_wfbetaseries_node:inmaskfile:w</title>
<path fill="none" stroke="black" d="M254.5,-362.5C306.724,-362.5 253.927,-297.222 253.5,-245 253.069,-192.318 203.596,-127.391 242.176,-118.521"/>
<polygon fill="black" stroke="black" points="242.893,-121.967 252.5,-117.5 242.204,-115.001 242.893,-121.967"/>
</g>
<!-- betaseries_wfinput_node&#45;&gt;betaseries_wfbetaseries_node -->
<g id="edge4" class="edge"><title>betaseries_wfinput_node:outboldmetadata:e&#45;&gt;betaseries_wfbetaseries_node:inboldmetadata:w</title>
<path fill="none" stroke="black" d="M254.5,-338.5C317.553,-338.5 201.135,-205.232 242.455,-189.094"/>
<polygon fill="black" stroke="black" points="243.172,-192.524 252.5,-187.5 242.075,-185.61 243.172,-192.524"/>
</g>
<!-- betaseries_wfinput_node&#45;&gt;betaseries_wfbetaseries_node -->
<g id="edge5" class="edge"><title>betaseries_wfinput_node:outconfoundsfile:e&#45;&gt;betaseries_wfbetaseries_node:inconfoundsfile:w</title>
<path fill="none" stroke="black" d="M254.5,-315.5C285.836,-315.5 253.914,-276.334 253.5,-245 253.077,-213.023 224.389,-173.988 242.595,-165.278"/>
<polygon fill="black" stroke="black" points="243.276,-168.712 252.5,-163.5 242.039,-161.822 243.276,-168.712"/>
</g>
<!-- betaseries_wfinput_node&#45;&gt;betaseries_wfbetaseries_node -->
<g id="edge6" class="edge"><title>betaseries_wfinput_node:outeventsfile:e&#45;&gt;betaseries_wfbetaseries_node:ineventsfile:w</title>
<path fill="none" stroke="black" d="M254.5,-292.5C275.616,-292.5 253.823,-266.113 253.5,-245 252.85,-202.55 213.746,-150.393 242.502,-141.742"/>
<polygon fill="black" stroke="black" points="243.008,-145.206 252.5,-140.5 242.145,-138.26 243.008,-145.206"/>
</g>
<!-- betaseries_wfoutput_node -->
<g id="node3" class="node"><title>betaseries_wfoutput_node</title>
<polygon fill="none" stroke="black" points="603.5,-0.5 603.5,-69.5 885.5,-69.5 885.5,-0.5 603.5,-0.5"/>
<text text-anchor="middle" x="667.5" y="-48.8" font-family="Times,serif" font-size="14.00">IN</text>
<polyline fill="none" stroke="black" points="603.5,-35.5 731.5,-35.5 "/>
<text text-anchor="middle" x="667.5" y="-14.3" font-family="Times,serif" font-size="14.00">betaseries_files</text>
<polyline fill="none" stroke="black" points="731.5,-0.5 731.5,-69.5 "/>
<text text-anchor="middle" x="784.5" y="-54.3" font-family="Times,serif" font-size="14.00">output_node</text>
<polyline fill="none" stroke="black" points="731.5,-46.5 837.5,-46.5 "/>
<text text-anchor="middle" x="784.5" y="-31.3" font-family="Times,serif" font-size="14.00">utility</text>
<polyline fill="none" stroke="black" points="731.5,-23.5 837.5,-23.5 "/>
<text text-anchor="middle" x="784.5" y="-8.3" font-family="Times,serif" font-size="14.00"> </text>
<polyline fill="none" stroke="black" points="837.5,-0.5 837.5,-69.5 "/>
<text text-anchor="middle" x="861.5" y="-31.3" font-family="Times,serif" font-size="14.00">OUT</text>
</g>
<!-- betaseries_wfbetaseries_node&#45;&gt;betaseries_wfoutput_node -->
<g id="edge1" class="edge"><title>betaseries_wfbetaseries_node:outbetamaps:e&#45;&gt;betaseries_wfoutput_node:inbetaseriesfiles:w</title>
<path fill="none" stroke="black" d="M604.5,-140.5C654.698,-140.5 564.368,-36.3929 592.608,-20.1262"/>
<polygon fill="black" stroke="black" points="593.459,-23.5233 602.5,-18 591.988,-16.6797 593.459,-23.5233"/>
</g>
</g>
</svg>
