<?xml version="1.0" encoding="UTF-8" standalone="no"?>
<!DOCTYPE svg PUBLIC "-//W3C//DTD SVG 1.1//EN"
 "http://www.w3.org/Graphics/SVG/1.1/DTD/svg11.dtd">
<!-- Generated by graphviz version 2.38.0 (20140413.2041)
 -->
<!-- Title: %3 Pages: 1 -->
<svg width="359pt" height="260pt"
 viewBox="0.00 0.00 358.63 260.00" xmlns="http://www.w3.org/2000/svg" xmlns:xlink="http://www.w3.org/1999/xlink">
<g id="graph0" class="graph" transform="scale(1 1) rotate(0) translate(4 256)">
<title>%3</title>
<polygon fill="white" stroke="none" points="-4,4 -4,-256 354.626,-256 354.626,4 -4,4"/>
<!-- input_node (utility) -->
<g id="node1" class="node"><title>input_node (utility)</title>
<ellipse fill="none" stroke="black" cx="204.389" cy="-234" rx="100.182" ry="18"/>
<text text-anchor="middle" x="204.389" y="-230.3" font-family="Times,serif" font-size="14.00">input_node (utility)</text>
</g>
<!-- atlas_corr_node (nilearn) -->
<g id="node2" class="node"><title>atlas_corr_node (nilearn)</title>
<ellipse fill="none" stroke="black" cx="127.389" cy="-162" rx="127.277" ry="18"/>
<text text-anchor="middle" x="127.389" y="-158.3" font-family="Times,serif" font-size="14.00">atlas_corr_node (nilearn)</text>
</g>
<!-- input_node (utility)&#45;&gt;atlas_corr_node (nilearn) -->
<g id="edge1" class="edge"><title>input_node (utility)&#45;&gt;atlas_corr_node (nilearn)</title>
<path fill="none" stroke="black" d="M185.749,-216.055C176.079,-207.264 164.107,-196.38 153.528,-186.763"/>
<polygon fill="black" stroke="black" points="155.877,-184.169 146.123,-180.032 151.169,-189.348 155.877,-184.169"/>
</g>
<!-- rename_matrix_node (utility) -->
<g id="node3" class="node"><title>rename_matrix_node (utility)</title>
<ellipse fill="none" stroke="black" cx="204.389" cy="-90" rx="146.474" ry="18"/>
<text text-anchor="middle" x="204.389" y="-86.3" font-family="Times,serif" font-size="14.00">rename_matrix_node (utility)</text>
</g>
<!-- input_node (utility)&#45;&gt;rename_matrix_node (utility) -->
<g id="edge2" class="edge"><title>input_node (utility)&#45;&gt;rename_matrix_node (utility)</title>
<path fill="none" stroke="black" d="M231.262,-216.567C243.498,-207.469 256.716,-194.965 263.389,-180 269.905,-165.387 269.905,-158.613 263.389,-144 258.263,-132.505 249.276,-122.462 239.838,-114.3"/>
<polygon fill="black" stroke="black" points="241.864,-111.438 231.879,-107.895 237.475,-116.891 241.864,-111.438"/>
</g>
<!-- atlas_corr_node (nilearn)&#45;&gt;rename_matrix_node (utility) -->
<g id="edge3" class="edge"><title>atlas_corr_node (nilearn)&#45;&gt;rename_matrix_node (utility)</title>
<path fill="none" stroke="black" d="M146.028,-144.055C155.698,-135.264 167.671,-124.38 178.25,-114.763"/>
<polygon fill="black" stroke="black" points="180.609,-117.348 185.654,-108.032 175.9,-112.169 180.609,-117.348"/>
</g>
<!-- output_node (utility) -->
<g id="node4" class="node"><title>output_node (utility)</title>
<ellipse fill="none" stroke="black" cx="204.389" cy="-18" rx="106.681" ry="18"/>
<text text-anchor="middle" x="204.389" y="-14.3" font-family="Times,serif" font-size="14.00">output_node (utility)</text>
</g>
<!-- rename_matrix_node (utility)&#45;&gt;output_node (utility) -->
<g id="edge4" class="edge"><title>rename_matrix_node (utility)&#45;&gt;output_node (utility)</title>
<path fill="none" stroke="black" d="M204.389,-71.6966C204.389,-63.9827 204.389,-54.7125 204.389,-46.1124"/>
<polygon fill="black" stroke="black" points="207.889,-46.1043 204.389,-36.1043 200.889,-46.1044 207.889,-46.1043"/>
</g>
</g>
</svg>
