<?xml version="1.0" encoding="UTF-8" standalone="no"?>
<!DOCTYPE svg PUBLIC "-//W3C//DTD SVG 1.1//EN"
 "http://www.w3.org/Graphics/SVG/1.1/DTD/svg11.dtd">
<!-- Generated by graphviz version 2.38.0 (20140413.2041)
 -->
<!-- Title: %3 Pages: 1 -->
<svg width="392pt" height="332pt"
 viewBox="0.00 0.00 391.93 332.00" xmlns="http://www.w3.org/2000/svg" xmlns:xlink="http://www.w3.org/1999/xlink">
<g id="graph0" class="graph" transform="scale(1 1) rotate(0) translate(4 328)">
<title>%3</title>
<polygon fill="white" stroke="none" points="-4,4 -4,-328 387.928,-328 387.928,4 -4,4"/>
<!-- input_node (utility) -->
<g id="node1" class="node"><title>input_node (utility)</title>
<ellipse fill="none" stroke="black" cx="192.591" cy="-306" rx="100.182" ry="18"/>
<text text-anchor="middle" x="192.591" y="-302.3" font-family="Times,serif" font-size="14.00">input_node (utility)</text>
</g>
<!-- betaseries_wf -->
<g id="node2" class="node"><title>betaseries_wf</title>
<ellipse fill="none" stroke="black" cx="192.591" cy="-234" rx="75.2868" ry="18"/>
<text text-anchor="middle" x="192.591" y="-230.3" font-family="Times,serif" font-size="14.00">betaseries_wf</text>
</g>
<!-- input_node (utility)&#45;&gt;betaseries_wf -->
<g id="edge1" class="edge"><title>input_node (utility)&#45;&gt;betaseries_wf</title>
<path fill="none" stroke="black" d="M192.591,-287.697C192.591,-279.983 192.591,-270.712 192.591,-262.112"/>
<polygon fill="black" stroke="black" points="196.091,-262.104 192.591,-252.104 189.091,-262.104 196.091,-262.104"/>
</g>
<!-- correlation_wf -->
<g id="node3" class="node"><title>correlation_wf</title>
<ellipse fill="none" stroke="black" cx="106.591" cy="-162" rx="77.9862" ry="18"/>
<text text-anchor="middle" x="106.591" y="-158.3" font-family="Times,serif" font-size="14.00">correlation_wf</text>
</g>
<!-- input_node (utility)&#45;&gt;correlation_wf -->
<g id="edge2" class="edge"><title>input_node (utility)&#45;&gt;correlation_wf</title>
<path fill="none" stroke="black" d="M151.789,-289.51C135.374,-281.051 118.106,-268.806 108.591,-252 97.9743,-233.25 98.3278,-208.527 100.852,-189.897"/>
<polygon fill="black" stroke="black" points="104.312,-190.421 102.471,-179.988 97.404,-189.292 104.312,-190.421"/>
</g>
<!-- ds_correlation_matrix (bids) -->
<g id="node4" class="node"><title>ds_correlation_matrix (bids)</title>
<ellipse fill="none" stroke="black" cx="241.591" cy="-18" rx="142.175" ry="18"/>
<text text-anchor="middle" x="241.591" y="-14.3" font-family="Times,serif" font-size="14.00">ds_correlation_matrix (bids)</text>
</g>
<!-- input_node (utility)&#45;&gt;ds_correlation_matrix (bids) -->
<g id="edge3" class="edge"><title>input_node (utility)&#45;&gt;ds_correlation_matrix (bids)</title>
<path fill="none" stroke="black" d="M234.013,-289.383C250.328,-280.951 267.348,-268.761 276.591,-252 313.764,-184.59 277.369,-90.375 255.481,-45.1934"/>
<polygon fill="black" stroke="black" points="258.526,-43.4572 250.932,-36.0697 252.262,-46.5808 258.526,-43.4572"/>
</g>
<!-- betaseries_wf&#45;&gt;correlation_wf -->
<g id="edge4" class="edge"><title>betaseries_wf&#45;&gt;correlation_wf</title>
<path fill="none" stroke="black" d="M172.21,-216.411C161.071,-207.345 147.102,-195.974 134.918,-186.057"/>
<polygon fill="black" stroke="black" points="136.79,-183.068 126.825,-179.47 132.371,-188.497 136.79,-183.068"/>
</g>
<!-- betaseries_wf&#45;&gt;ds_correlation_matrix (bids) -->
<g id="edge5" class="edge"><title>betaseries_wf&#45;&gt;ds_correlation_matrix (bids)</title>
<path fill="none" stroke="black" d="M196.903,-215.642C202.859,-191.532 213.857,-146.525 222.591,-108 227.277,-87.3284 232.269,-63.8809 235.96,-46.2439"/>
<polygon fill="black" stroke="black" points="239.462,-46.5936 238.076,-36.09 232.61,-45.1659 239.462,-46.5936"/>
</g>
<!-- output_node (utility) -->
<g id="node5" class="node"><title>output_node (utility)</title>
<ellipse fill="none" stroke="black" cx="106.591" cy="-90" rx="106.681" ry="18"/>
<text text-anchor="middle" x="106.591" y="-86.3" font-family="Times,serif" font-size="14.00">output_node (utility)</text>
</g>
<!-- correlation_wf&#45;&gt;output_node (utility) -->
<g id="edge6" class="edge"><title>correlation_wf&#45;&gt;output_node (utility)</title>
<path fill="none" stroke="black" d="M106.591,-143.697C106.591,-135.983 106.591,-126.712 106.591,-118.112"/>
<polygon fill="black" stroke="black" points="110.091,-118.104 106.591,-108.104 103.091,-118.104 110.091,-118.104"/>
</g>
<!-- output_node (utility)&#45;&gt;ds_correlation_matrix (bids) -->
<g id="edge7" class="edge"><title>output_node (utility)&#45;&gt;ds_correlation_matrix (bids)</title>
<path fill="none" stroke="black" d="M137.902,-72.7646C156.544,-63.098 180.416,-50.7201 200.554,-40.2781"/>
<polygon fill="black" stroke="black" points="202.245,-43.3438 209.512,-35.6334 199.023,-37.1295 202.245,-43.3438"/>
</g>
</g>
</svg>
