<?xml version="1.0" encoding="UTF-8" standalone="no"?>
<!DOCTYPE svg PUBLIC "-//W3C//DTD SVG 1.1//EN"
 "http://www.w3.org/Graphics/SVG/1.1/DTD/svg11.dtd">
<!-- Generated by graphviz version 2.38.0 (20140413.2041)
 -->
<!-- Title: %3 Pages: 1 -->
<svg width="264pt" height="188pt"
 viewBox="0.00 0.00 264.08 188.00" xmlns="http://www.w3.org/2000/svg" xmlns:xlink="http://www.w3.org/1999/xlink">
<g id="graph0" class="graph" transform="scale(1 1) rotate(0) translate(4 184)">
<title>%3</title>
<polygon fill="white" stroke="none" points="-4,4 -4,-184 260.077,-184 260.077,4 -4,4"/>
<!-- input_node (utility) -->
<g id="node1" class="node"><title>input_node (utility)</title>
<ellipse fill="none" stroke="black" cx="128.039" cy="-162" rx="100.182" ry="18"/>
<text text-anchor="middle" x="128.039" y="-158.3" font-family="Times,serif" font-size="14.00">input_node (utility)</text>
</g>
<!-- betaseries_node (nistats) -->
<g id="node2" class="node"><title>betaseries_node (nistats)</title>
<ellipse fill="none" stroke="black" cx="128.039" cy="-90" rx="128.077" ry="18"/>
<text text-anchor="middle" x="128.039" y="-86.3" font-family="Times,serif" font-size="14.00">betaseries_node (nistats)</text>
</g>
<!-- input_node (utility)&#45;&gt;betaseries_node (nistats) -->
<g id="edge1" class="edge"><title>input_node (utility)&#45;&gt;betaseries_node (nistats)</title>
<path fill="none" stroke="black" d="M128.039,-143.697C128.039,-135.983 128.039,-126.712 128.039,-118.112"/>
<polygon fill="black" stroke="black" points="131.539,-118.104 128.039,-108.104 124.539,-118.104 131.539,-118.104"/>
</g>
<!-- output_node (utility) -->
<g id="node3" class="node"><title>output_node (utility)</title>
<ellipse fill="none" stroke="black" cx="128.039" cy="-18" rx="106.681" ry="18"/>
<text text-anchor="middle" x="128.039" y="-14.3" font-family="Times,serif" font-size="14.00">output_node (utility)</text>
</g>
<!-- betaseries_node (nistats)&#45;&gt;output_node (utility) -->
<g id="edge2" class="edge"><title>betaseries_node (nistats)&#45;&gt;output_node (utility)</title>
<path fill="none" stroke="black" d="M128.039,-71.6966C128.039,-63.9827 128.039,-54.7125 128.039,-46.1124"/>
<polygon fill="black" stroke="black" points="131.539,-46.1043 128.039,-36.1043 124.539,-46.1044 131.539,-46.1043"/>
</g>
</g>
</svg>
